<?xml version="1.0" standalone="no"?>
<!DOCTYPE svg PUBLIC "-//W3C//DTD SVG 20010904//EN"
 "http://www.w3.org/TR/2001/REC-SVG-20010904/DTD/svg10.dtd">
<svg version="1.0" xmlns="http://www.w3.org/2000/svg"
 width="1000.000000pt" height="1000.000000pt" viewBox="0 0 1000.000000 1000.000000"
 preserveAspectRatio="xMidYMid meet">
<metadata>
Created by potrace 1.11, written by Peter Selinger 2001-2013
</metadata>
<g transform="translate(0.000000,1000.000000) scale(0.100000,-0.100000)"
fill="#000000" stroke="none">
<path d="M4749 9855 c-2 -2 -47 -6 -99 -9 -106 -7 -180 -13 -225 -20 -16 -3
-52 -8 -80 -11 -46 -5 -287 -46 -345 -59 -282 -61 -708 -194 -885 -276 -11 -5
-72 -32 -135 -60 -181 -81 -529 -269 -538 -292 -2 -4 -8 -8 -13 -8 -9 0 -208
-127 -219 -139 -3 -3 -27 -22 -55 -40 -27 -19 -52 -37 -55 -40 -3 -4 -39 -31
-80 -63 -41 -31 -85 -65 -97 -75 -12 -10 -32 -27 -45 -37 -157 -128 -436 -405
-575 -571 -23 -28 -50 -60 -60 -71 -10 -12 -29 -36 -43 -54 -14 -18 -45 -58
-70 -90 -25 -31 -51 -66 -58 -76 -7 -10 -38 -56 -70 -101 -299 -426 -542 -946
-685 -1468 -26 -94 -76 -302 -83 -345 -3 -14 -12 -63 -20 -110 -16 -87 -22
-122 -28 -175 -2 -16 -7 -57 -11 -90 -24 -193 -30 -307 -30 -580 0 -148 4
-313 9 -365 13 -153 14 -163 20 -210 4 -25 9 -62 11 -84 11 -82 40 -247 66
-366 64 -291 171 -629 274 -865 7 -16 21 -50 31 -75 28 -71 204 -415 215 -418
5 -2 9 -12 9 -22 0 -10 4 -21 9 -24 8 -5 69 -105 80 -131 2 -5 8 -14 13 -20 4
-5 36 -53 71 -105 34 -52 65 -96 70 -98 4 -2 7 -10 7 -17 0 -7 3 -15 8 -17 4
-1 27 -30 51 -63 25 -33 48 -61 53 -63 4 -2 8 -8 8 -14 0 -14 112 -148 124
-148 5 0 6 -3 3 -6 -4 -4 1 -14 11 -23 9 -9 39 -43 67 -76 60 -72 349 -362
424 -425 29 -25 71 -61 94 -80 64 -56 74 -64 97 -80 12 -8 34 -25 48 -38 40
-34 278 -203 350 -248 35 -21 73 -46 86 -54 282 -181 721 -380 1111 -503 73
-24 364 -99 425 -111 14 -3 36 -8 50 -11 14 -3 41 -8 60 -11 19 -3 71 -12 115
-19 88 -16 130 -22 220 -31 33 -3 71 -7 85 -10 109 -19 646 -26 830 -11 142
11 191 16 231 22 20 3 57 8 82 10 25 3 108 17 184 31 76 14 149 28 163 30 14
3 95 22 180 44 325 82 652 201 945 346 181 89 418 220 423 235 2 5 10 9 17 9
8 0 20 6 27 13 7 7 32 24 56 37 23 13 42 27 42 31 0 4 9 10 20 14 18 6 318
224 350 256 8 8 31 27 50 43 168 137 436 403 580 575 25 29 53 63 64 75 10 11
30 37 45 56 14 19 28 37 31 40 3 3 17 21 30 40 13 19 27 37 30 40 12 11 67 88
126 179 35 53 68 101 73 107 53 64 305 542 361 685 12 29 29 71 39 93 99 223
249 738 285 981 8 55 15 100 26 165 6 30 12 84 16 120 3 36 7 76 10 90 11 61
19 264 19 490 0 254 -7 389 -29 565 -4 28 -9 68 -11 90 -3 22 -7 51 -10 65 -3
14 -8 45 -11 70 -3 25 -8 54 -11 65 -3 11 -7 30 -9 43 -7 65 -98 423 -144 567
-47 146 -148 415 -161 429 -5 6 -9 17 -9 25 0 22 -220 461 -231 461 -5 0 -9 9
-9 19 0 11 -4 22 -9 25 -8 5 -27 36 -97 157 -6 10 -17 27 -25 36 -8 10 -21 30
-29 45 -7 15 -21 37 -32 47 -10 11 -18 23 -18 26 0 6 -49 75 -60 85 -4 3 -16
22 -29 43 -13 21 -28 43 -35 50 -16 17 -57 68 -86 107 -25 34 -56 70 -159 190
-179 207 -488 491 -739 678 -67 51 -127 92 -132 92 -4 0 -10 4 -12 8 -1 4 -37
30 -78 56 -41 27 -87 57 -102 67 -15 11 -32 19 -38 19 -5 0 -10 4 -10 10 0 5
-11 12 -25 16 -14 3 -25 10 -25 14 0 4 -8 10 -17 13 -10 4 -38 18 -63 33 -54
33 -371 193 -420 213 -19 8 -53 22 -75 32 -242 107 -671 241 -928 290 -115 22
-282 50 -326 55 -25 3 -59 7 -76 10 -16 2 -61 6 -100 9 -38 4 -81 9 -95 12
-29 5 -626 14 -631 8z"/>
</g>
</svg>
